<?xml version="1.0" standalone="no"?>
<!DOCTYPE svg PUBLIC "-//W3C//DTD SVG 20010904//EN"
 "http://www.w3.org/TR/2001/REC-SVG-20010904/DTD/svg10.dtd">
<svg version="1.0" xmlns="http://www.w3.org/2000/svg"
 width="200.000000pt" height="200.000000pt" viewBox="0 0 200.000000 200.000000"
 preserveAspectRatio="xMidYMid meet">

<g transform="translate(0.000000,200.000000) scale(0.100000,-0.100000)"
fill="#000000" stroke="none">
<path d="M840 1904 c-59 -50 -60 -57 -60 -354 0 -233 2 -277 17 -307 25 -54
65 -73 151 -73 l72 0 0 -98 c0 -161 24 -163 168 -12 l104 110 82 0 c95 0 133
18 159 73 15 30 17 74 17 307 0 258 -1 274 -21 310 -39 69 -42 70 -367 70
l-290 0 -32 -26z m608 -76 c9 -9 12 -85 12 -279 0 -317 8 -299 -124 -299 l-81
0 -72 -72 -73 -72 0 52 c0 87 -6 92 -108 92 -141 0 -132 -20 -132 299 0 194 3
270 12 279 17 17 549 17 566 0z"/>
<path d="M1175 1680 c-4 -6 -24 -62 -45 -125 -34 -101 -37 -117 -24 -130 8 -8
21 -12 29 -9 21 9 97 244 84 261 -14 16 -35 17 -44 3z"/>
<path d="M983 1617 c-28 -23 -55 -49 -58 -57 -9 -21 103 -121 130 -118 36 5
30 40 -11 75 l-39 34 39 33 c25 21 37 39 34 52 -6 33 -41 26 -95 -19z"/>
<path d="M1257 1653 c-16 -15 -5 -40 30 -70 l38 -32 -39 -34 c-41 -35 -47 -70
-11 -75 27 -3 139 97 130 118 -9 21 -109 100 -127 100 -8 0 -18 -3 -21 -7z"/>
<path d="M616 1239 c-73 -17 -166 -70 -232 -131 -98 -92 -134 -174 -178 -408
-63 -328 -66 -435 -18 -529 28 -54 103 -101 162 -101 111 0 247 113 360 300
l57 95 232 3 232 2 17 -31 c47 -87 136 -210 190 -262 115 -109 219 -135 308
-75 115 79 125 197 48 598 -40 209 -72 292 -145 374 -61 69 -118 109 -135 95
-8 -6 -30 -17 -51 -24 l-37 -13 44 -22 c60 -30 142 -117 174 -183 17 -34 39
-117 61 -231 66 -338 69 -438 13 -502 -85 -97 -231 5 -378 264 l-53 92 -287 0
-287 0 -53 -92 c-64 -113 -127 -196 -183 -241 -58 -47 -79 -57 -125 -57 -53 0
-97 48 -108 116 -15 99 63 552 113 653 63 131 191 214 356 234 l94 11 -26 38
c-24 35 -29 37 -76 37 -27 -1 -67 -5 -89 -10z"/>
<path d="M589 1041 c-21 -22 -29 -39 -29 -65 0 -34 -2 -36 -35 -36 -24 0 -44
-9 -67 -29 -65 -58 -31 -156 59 -170 35 -6 38 -9 41 -43 4 -48 49 -88 97 -88
48 0 93 41 101 91 6 35 10 39 35 39 18 0 41 11 61 29 27 24 33 36 33 71 0 35
-6 47 -33 71 -20 18 -43 29 -61 29 -25 0 -29 4 -35 39 -13 84 -109 120 -167
62z m85 -37 c11 -4 16 -20 16 -53 0 -58 12 -71 66 -71 40 0 74 -19 74 -40 0
-21 -34 -40 -74 -40 -54 0 -66 -13 -66 -71 0 -39 -4 -49 -20 -54 -31 -10 -50
12 -50 59 0 56 -8 64 -64 68 -91 6 -91 70 0 76 56 4 64 12 64 68 0 53 18 72
54 58z"/>
<path d="M1289 1031 c-35 -35 -38 -77 -9 -114 42 -53 128 -38 149 26 31 91
-72 156 -140 88z m79 -59 c3 -16 -2 -22 -17 -22 -26 0 -36 17 -20 36 16 19 33
13 37 -14z"/>
<path d="M1175 918 c-32 -18 -44 -40 -44 -78 0 -39 13 -61 46 -78 33 -18 59
-14 92 14 25 20 31 34 31 64 0 65 -71 109 -125 78z m65 -78 c0 -10 -6 -20 -12
-23 -21 -7 -38 4 -38 23 0 10 6 20 13 23 20 7 37 -4 37 -23z"/>
<path d="M1440 918 c-54 -29 -64 -95 -21 -139 58 -57 146 -21 146 60 0 67 -66
109 -125 79z m60 -64 c11 -12 10 -18 -3 -32 -16 -15 -18 -15 -34 0 -13 14 -14
20 -3 32 7 9 16 16 20 16 4 0 13 -7 20 -16z"/>
<path d="M1313 785 c-60 -26 -71 -89 -24 -136 37 -36 79 -38 117 -5 37 31 39
86 4 120 -33 32 -59 38 -97 21z m57 -75 c0 -24 -26 -38 -42 -22 -16 16 -2 42
22 42 13 0 20 -7 20 -20z"/>
</g>
</svg>
