<?xml version="1.0" standalone="no"?>
<!DOCTYPE svg PUBLIC "-//W3C//DTD SVG 20010904//EN"
 "http://www.w3.org/TR/2001/REC-SVG-20010904/DTD/svg10.dtd">
<svg version="1.0" xmlns="http://www.w3.org/2000/svg"
 width="227.000000pt" height="222.000000pt" viewBox="0 0 227.000000 222.000000"
 preserveAspectRatio="xMidYMid meet">

<g transform="translate(0.000000,222.000000) scale(0.100000,-0.100000)"
fill="#000000" stroke="none">
<path d="M928 2210 c-171 -27 -351 -107 -483 -213 -84 -68 -184 -185 -230
-268 l-26 -49 876 0 877 0 -28 48 c-68 117 -171 230 -280 308 -86 61 -234 129
-334 154 -97 23 -286 34 -372 20z m-96 -202 c-56 -57 -125 -133 -153 -170
l-52 -68 -128 0 c-96 0 -129 3 -129 12 0 7 36 48 80 90 111 108 242 182 395
223 94 26 93 20 -13 -87z m534 60 c45 -16 119 -52 165 -80 80 -50 229 -184
229 -207 0 -8 -39 -11 -128 -11 l-129 0 -60 78 c-34 43 -103 120 -154 171
l-93 93 44 -7 c25 -4 82 -21 126 -37z m-350 -285 c-4 -10 -37 -13 -131 -13
-69 0 -125 4 -125 9 0 14 143 173 201 223 l54 47 3 -127 c1 -69 0 -132 -2
-139z m210 165 c80 -83 144 -159 144 -170 0 -5 -57 -7 -127 -6 l-128 3 -3 138
-3 139 28 -20 c15 -11 55 -49 89 -84z"/>
<path d="M25 1363 c36 -151 83 -334 87 -338 2 -2 41 -5 88 -6 l84 -2 31 116
c16 65 32 117 35 117 3 0 18 -52 34 -115 l29 -115 87 0 88 0 55 220 55 220
-79 0 c-44 0 -79 -1 -79 -2 -1 -15 -49 -260 -51 -263 -3 -2 -17 57 -33 131
l-28 134 -78 0 -77 0 -22 -102 c-11 -57 -24 -118 -27 -136 -4 -18 -8 -31 -11
-29 -3 3 -53 252 -53 264 0 2 -35 3 -79 3 l-79 0 23 -97z"/>
<path d="M720 1453 c1 -5 24 -104 53 -221 l52 -214 87 -1 86 -2 20 75 c12 41
26 95 32 120 15 54 18 48 54 -90 l28 -105 86 2 87 1 52 214 c29 117 53 216 53
221 0 4 -35 7 -78 7 l-78 0 -24 -137 c-13 -75 -26 -131 -29 -123 -2 8 -16 69
-31 135 l-26 120 -77 3 -76 3 -10 -38 c-5 -21 -17 -78 -27 -128 -9 -49 -20
-93 -23 -97 -4 -4 -18 53 -31 127 l-24 135 -78 0 c-43 0 -78 -3 -78 -7z"/>
<path d="M1487 1240 l55 -220 88 0 88 0 28 115 c15 63 31 115 34 115 4 0 20
-52 36 -116 l30 -116 86 -1 87 -2 51 205 c28 113 53 213 56 223 5 15 -3 17
-74 17 -92 0 -80 17 -108 -152 -10 -60 -21 -108 -24 -108 -3 0 -12 28 -19 63
-7 34 -20 92 -28 130 l-15 67 -78 0 -77 0 -7 -32 c-21 -111 -49 -238 -52 -235
-2 2 -13 52 -24 113 -11 60 -23 119 -25 132 -5 21 -11 22 -84 22 l-79 0 55
-220z"/>
<path d="M1376 844 c-9 -8 -16 -17 -16 -20 0 -11 85 -207 190 -434 64 -140
125 -277 135 -303 19 -50 55 -87 85 -87 36 0 68 40 102 125 18 47 37 85 41 85
4 0 39 -27 77 -60 128 -109 134 -110 215 -12 78 94 76 102 -36 198 l-90 77 82
53 c106 67 130 107 92 153 -14 17 -86 41 -298 102 -267 77 -511 139 -547 139
-9 0 -24 -7 -32 -16z m442 -159 c196 -53 364 -98 372 -101 20 -7 -7 -29 -117
-97 -50 -30 -83 -57 -83 -66 0 -18 61 -80 148 -150 l53 -43 -34 -41 c-19 -23
-38 -42 -43 -44 -5 -2 -50 31 -99 73 -50 41 -98 80 -107 85 -25 14 -41 -9 -84
-116 -21 -53 -43 -100 -49 -105 -9 -7 -51 78 -154 310 -168 379 -173 390 -166
390 3 0 167 -43 363 -95z"/>
<path d="M206 768 c60 -117 189 -261 303 -337 85 -58 213 -117 308 -143 109
-30 362 -32 476 -4 42 10 77 23 77 27 0 5 -8 25 -17 44 -16 33 -20 36 -48 30
-16 -3 -46 -9 -65 -12 l-35 -5 50 44 49 45 -19 44 c-10 24 -20 46 -22 48 -2 3
-27 -18 -56 -45 -28 -27 -62 -58 -74 -68 l-23 -19 0 141 0 142 43 0 44 0 -16
50 -16 50 -488 0 -488 0 17 -32z m473 -148 c35 -44 104 -118 153 -165 49 -47
84 -85 77 -85 -32 0 -143 36 -216 70 -102 48 -161 88 -241 164 -103 98 -104
96 41 96 l123 0 63 -80z m341 -61 l0 -141 -37 30 c-36 29 -170 164 -223 225
l-23 27 141 0 142 0 0 -141z"/>
</g>
</svg>
